# xmcd
#
# Track frame offsets: 
#        183
#        12905
#        21503
#        32010
#        43125
#        54865
#        69113
#        81103
#        89430
#        99310
#        110820
#        127575
#        138918
#        152570
#        162735
#
# Disc length: 2303 seconds
#
# Revision: 0
# Processed by: cddbd v1.4PL0 Copyright (c) Steve Scherf et al.
# Submitted via: ExactAudioCopy v0.95a3
#
DISCID=b808fd0f
DTITLE=Various Artist - Salut les copains Vol 2 - CD 2
DYEAR=1900
DGENRE=country
TTITLE0=Si j'avais un marteau - Claude François
TTITLE1=Da doo ron ron - Frank Alamo
TTITLE2=Il fait trop chaud pour travailler - Les parisiennes
TTITLE3=L'idole des jeunes - Johnny
TTITLE4=Laissez-nous twister - Danny Logan et les pirates
TTITLE5=Et s'il n'en reste qu'un - Eddy Mitchell
TTITLE6=Ne t'en fais pas pour Ronnie - Ronnie Bird
TTITLE7=Pour oublier qu'on s'est aimé - Nicoletta
TTITLE8=Memphis Tenessee - Danyel Gerard
TTITLE9=Le twist du canotier - Les chaussettes noires - Maurice Cheval
TTITLE9=ier
TTITLE10=Le déserteur - Les sunlights
TTITLE11=Inventaire - Michel Delpech
TTITLE12=Le monde est gris - Eric Charden
TTITLE13=Slc jerk - Les lionceaux
TTITLE14=Vous les copains - Sheila
EXTD=
EXTT0=
EXTT1=
EXTT2=
EXTT3=
EXTT4=
EXTT5=
EXTT6=
EXTT7=
EXTT8=
EXTT9=
EXTT10=
EXTT11=
EXTT12=
EXTT13=
EXTT14=
PLAYORDER=
